<svg xmlns="http://www.w3.org/2000/svg" viewBox="0 0 224.77 238.17"><defs><style>.cls-1{fill:#24b350;}</style></defs><g id="Layer_2" data-name="Layer 2"><g id="Layer_1-2" data-name="Layer 1"><path class="cls-1" d="M123.33,87.86C97,87.2,75.78,86.77,75.78,71.21c0-12.71,12.93-21.69,37.25-21.69,22.35,0,35.28,8.54,39.88,23.66a2.2,2.2,0,0,0,2.41,2h64.41a1.81,1.81,0,0,0,2-2.19c-4.6-51-49.51-73-106.7-73C64,0,33.06,17,18.68,41.5h0a67.93,67.93,0,0,0-3.53,6.9A155.77,155.77,0,0,0,0,113.81c13.45,16.67,65.51,72.51,139.52,43.59l-13.38-17,55.47,8.52L147,200.26V176S59.44,218.39,0,115.42c-.2,32.93,9.16,56.51,9.16,56.51,11.53,43.74,50.49,66.24,110.22,66.24,70.34,0,105.39-31.12,105.39-80.2C224.77,95.09,168.24,89,123.33,87.86Z"/></g></g></svg>